<svg fill="none" height="34" viewBox="0 0 32 34" width="32" xmlns="http://www.w3.org/2000/svg"><g fill="#000"><path d="m12.0013 33.9999c-2.30387 0-4.1888-1.885-4.1888-4.1888 0-2.3039 1.88493-4.1888 4.1888-4.1888 2.3038 0 4.1888 1.8849 4.1888 4.1888-.0001 2.3038-1.8851 4.1888-4.1888 4.1888zm0-5.8643c-.9216 0-1.6755.754-1.6755 1.6755s.7539 1.6755 1.6755 1.6755c.9215 0 1.6755-.754 1.6755-1.6755s-.7541-1.6755-1.6755-1.6755z"/><path d="m24.3997 33.9999c-2.3038 0-4.1888-1.885-4.1888-4.1888 0-2.3039 1.885-4.1888 4.1888-4.1888 2.3039 0 4.1888 1.8849 4.1888 4.1888 0 2.3038-1.8849 4.1888-4.1888 4.1888zm0-5.8643c-.9215 0-1.6755.754-1.6755 1.6755s.754 1.6755 1.6755 1.6755c.9216 0 1.6755-.754 1.6755-1.6755s-.7539-1.6755-1.6755-1.6755z"/><path d="m31.6459 8.99326c-.2514-.2932-.5864-.46077-.9634-.46077h-21.99106l-1.17289-5.78051c-.08379-.50262-.50263-.87961-1.00533-1.00532l-5.02645-.92154c-.670189-.125635-1.340458.33513-1.4660931 1.00532-.1256349.67019.3351341 1.34038 1.0053231 1.4661l4.18878.75397 3.68615 18.63999c.12564.5865.62834 1.0054 1.21477 1.0054h17.5928c.5864 0 1.0891-.4189 1.2148-.9634l2.9321-12.692c.1256-.3352.0418-.75404-.2095-1.04724zm-4.9008 12.23124h-15.5404l-2.01064-10.1787h19.93854z"/></g></svg>