<svg fill="none" height="53" viewBox="0 0 105 53" width="105" xmlns="http://www.w3.org/2000/svg"><path d="m32.9453 2.72656c-10.7422 0-18.7891.82032-24.14061 2.46094-5.35157 1.60156-8.027346 4.02344-8.027346 7.2656 0 2.5 1.894536 4.3946 5.683596 5.6836 3.78906 1.25 9.49216 1.875 17.10936 1.875h1.0547 3.1055c.9765-.039 2.0117-.0781 3.1054-.1172-.7421.7813-1.3086 1.5625-1.6992 2.3438-.4297.7422-.6445 1.4844-.6445 2.2265 0 .4297.0781.8985.2344 1.4063.1562.4687.3906.9961.7031 1.582-1.4453.7813-2.5 1.6602-3.1641 2.6367-.7031.9766-1.0547 2.129-1.0547 3.4571 0 .7031.1172 1.3672.3516 1.9922.1953.5859.4883 1.1718.8789 1.7578-1.0156.9375-1.7383 1.8554-2.168 2.7539-.4687.8594-.7031 1.7773-.7031 2.7539 0 2.6953 1.6602 5.0586 4.9805 7.0898 3.2812 1.9922 7.2656 2.9883 11.9531 2.9883 1.7188 0 3.1836-.2734 4.3945-.8203 1.1719-.5859 2.2657-1.5039 3.2813-2.7539 4.7656 0 8.6914-.2344 11.7773-.7031 3.086-.4688 5.6446-1.211 7.6758-2.2266.6641-.3125 1.6602-.8398 2.9883-1.582 4.1016-2.3047 7.4219-3.4571 9.9609-3.4571h.586v5.5664l8.9648.586 1.8164 3.457 12.5978-1.6406v-42.48048l-23.379-.76171v4.33589h-1.1133c-2.5391 0-5.9766-1.40621-10.3125-4.21871-.3125-.19531-.5469-.35156-.7031-.46875-3.0469-1.95312-5.3907-3.24218-7.0313-3.86718s-3.2617-.937504-4.8633-.937504c-1.0937 0-2.2265.175784-3.3984.527344-1.2109.35156-2.4805.85938-3.8086 1.52344-1.0156-.03907-2.4219-.07813-4.2187-.11719-4.2188-.07812-7.0508-.11719-8.4961-.11719zm-9.375 14.06254c-6.3281 0-11.0742-.3907-14.23827-1.1719-3.16406-.7813-4.74609-1.9531-4.74609-3.5156 0-2.10941 2.51953-3.69144 7.55856-4.74613 5-1.09375 12.3243-1.64063 21.9727-1.64063h1.6992c1.6406 0 3.2422.03907 4.8047.11719 1.5625.03906 3.0664.11719 4.5117.23438-1.6797 1.67968-3.2812 3.39843-4.8047 5.15629-1.5625 1.7187-3.0664 3.4765-4.5117 5.2734-.5469.0391-1.3086.0781-2.2852.1172-1.5234.1172-2.5195.1758-2.9882.1758zm27.7735 8.0273c1.7578.3125 3.164.9961 4.2187 2.0508 1.0547 1.0156 1.582 2.168 1.582 3.457 0 1.2891-.4101 2.3242-1.2304 3.1055-.8594.7422-2.0118 1.1133-3.4571 1.1133-1.6015 0-3.8281-.4883-6.6797-1.4649-2.8906-.9765-5.7421-2.2656-8.5546-3.8672-1.6407-.9375-2.8907-1.8164-3.75-2.6367-.8594-.8203-1.2891-1.5625-1.2891-2.2265 0-.6641.2344-1.2891.7031-1.875.4297-.625 1.1133-1.25 2.0508-1.875 1.0547 1.9921 2.3242 3.4375 3.8086 4.3359 1.4453.8594 3.3008 1.2891 5.5664 1.2891.8984 0 1.9531-.1172 3.1641-.3516 1.2109-.2344 2.5-.5859 3.8672-1.0547zm-1.5235 12.4805c0 1.6015-.3711 2.7929-1.1133 3.5742-.7422.7422-1.9336 1.1133-3.5742 1.1133-3.789 0-7.4219-.918-10.8984-2.7539-3.5156-1.836-5.2735-3.7305-5.2735-5.6836 0-.8594.2539-1.5625.7618-2.1094.5078-.5859 1.289-1.0352 2.3437-1.3477 3.6328 1.5235 6.8945 2.8711 9.7852 4.043 2.8906 1.1719 5.5468 2.2266 7.9687 3.1641zm-20.5078 2.5195c3.3984 1.7969 7.0313 3.1641 10.8984 4.1016 3.8672.9375 5.8008 1.8945 5.8008 2.8711 0 .9375-.5664 1.7382-1.6992 2.4023-1.1328.625-2.6172.9375-4.4531.9375-3.2032 0-6.1133-.7617-8.7305-2.2851-2.6562-1.5626-3.9844-3.1641-3.9844-4.8047 0-.7813.2149-1.4844.6446-2.1094s.9375-.9961 1.5234-1.1133zm29.8828-25.7226c-3.6719 3.5546-6.6211 6.0351-8.8476 7.4414-2.2657 1.3671-4.3165 2.0507-6.1524 2.0507-1.4453 0-2.7148-.332-3.8086-.9961-1.1328-.7031-1.6992-1.4453-1.6992-2.2265 0-.5078.3711-1.4453 1.1133-2.8125.7031-1.3672 1.6015-2.7149 2.6953-4.043 2.5-3.0078 5.0391-5.29296 7.6172-6.85546 2.539-1.5625 5-2.34375 7.3828-2.34375 2.8906 0 6.4648 1.44532 10.7227 4.33594.3515.23438.6445.42969.8789.58594 4.5312 3.16403 8.4375 4.74613 11.7187 4.74613h.3516v23.8476c-3.9063.3906-8.0274 1.9141-12.3633 4.5703-1.0156.625-1.7383 1.0352-2.168 1.2305-1.9922.9375-4.2578 1.6406-6.7969 2.1094-2.539.4297-5.4687.6445-8.789.6445h-2.4024v-2.1094c1.1719-.1953 2.0899-.8203 2.7539-1.875.625-1.0547 1.0743-2.6757 1.3477-4.8633 2.3438-.1562 4.1211-.8007 5.332-1.9335 1.1719-1.1719 1.9141-2.9688 2.2266-5.3907.9375.1953 1.7773.3516 2.5195.4688.7422.0781 1.4453.1172 2.1094.1172 1.6016 0 3.1836-.2735 4.7461-.8203 1.5625-.5469 3.1836-1.3868 4.8633-2.5196l-.9375-1.3476c-1.6016.5078-3.0274.8789-4.2774 1.1133-1.289.2343-2.4609.3515-3.5156.3515-1.7578 0-3.4961-.4101-5.2148-1.2305-1.7578-.8593-3.4961-2.1289-5.2149-3.8086l4.9219-6.9726zm25.3125 28.3593v-32.87107l7.6758.23438-1.1719 32.87109z" fill="#1a1919"/></svg>