<svg width="60" height="60" viewBox="0 0 60 60" fill="none" xmlns="http://www.w3.org/2000/svg">
<rect width="60" height="60" rx="10" fill="#009949"/>
<path fill-rule="evenodd" clip-rule="evenodd" d="M30.5 48.0195C40.4516 48.0195 48.519 39.9521 48.519 30.0005C48.519 20.0488 40.4516 11.9814 30.5 11.9814C20.5484 11.9814 12.481 20.0488 12.481 30.0005C12.481 39.9521 20.5484 48.0195 30.5 48.0195ZM29.8994 21.5913C31.558 21.5913 32.9026 20.2467 32.9026 18.5881C32.9026 16.9295 31.558 15.585 29.8994 15.585C28.2408 15.585 26.8962 16.9295 26.8962 18.5881C26.8962 20.2467 28.2408 21.5913 29.8994 21.5913ZM23.2925 24.595C23.2925 26.2536 21.9479 27.5981 20.2893 27.5981C18.6307 27.5981 17.2861 26.2536 17.2861 24.595C17.2861 22.9364 18.6307 21.5918 20.2893 21.5918C21.9479 21.5918 23.2925 22.9364 23.2925 24.595ZM20.2893 39.6108C21.9479 39.6108 23.2925 38.2663 23.2925 36.6077C23.2925 34.9491 21.9479 33.6045 20.2893 33.6045C18.6307 33.6045 17.2861 34.9491 17.2861 36.6077C17.2861 38.2663 18.6307 39.6108 20.2893 39.6108ZM32.9026 42.6135C32.9026 44.2721 31.558 45.6167 29.8994 45.6167C28.2408 45.6167 26.8962 44.2721 26.8962 42.6135C26.8962 40.9549 28.2408 39.6104 29.8994 39.6104C31.558 39.6104 32.9026 40.9549 32.9026 42.6135ZM29.8994 33.604C31.558 33.604 32.9026 32.2594 32.9026 30.6008C32.9026 28.9422 31.558 27.5977 29.8994 27.5977C28.2408 27.5977 26.8962 28.9422 26.8962 30.6008C26.8962 32.2594 28.2408 33.604 29.8994 33.604ZM37.7078 24.595C37.7078 26.2536 39.0523 27.5981 40.7109 27.5981C42.3695 27.5981 43.7141 26.2536 43.7141 24.595C43.7141 22.9364 42.3695 21.5918 40.7109 21.5918C39.0523 21.5918 37.7078 22.9364 37.7078 24.595ZM40.7109 39.6108C39.0523 39.6108 37.7078 38.2663 37.7078 36.6077C37.7078 34.9491 39.0523 33.6045 40.7109 33.6045C42.3695 33.6045 43.7141 34.9491 43.7141 36.6077C43.7141 38.2663 42.3695 39.6108 40.7109 39.6108Z" fill="white"/>
</svg>
