<svg width="60" height="60" viewBox="0 0 60 60" fill="none" xmlns="http://www.w3.org/2000/svg">
<rect x="-0.5" y="0.5" width="59" height="59" rx="9.5" transform="matrix(-1 0 0 1 59 0)" fill="white" stroke="#CDD3DF"/>
<path d="M12.019 29.8179C12.019 39.759 20.0779 47.8179 30.019 47.8179C39.9602 47.8179 48.019 39.759 48.019 29.8179C48.019 19.8767 39.9602 11.8179 30.019 11.8179C20.0779 11.8179 12.019 19.8767 12.019 29.8179Z" fill="#FAFBFC"/>
<path fill-rule="evenodd" clip-rule="evenodd" d="M30.019 12.8179C39.4079 12.8179 47.019 20.429 47.019 29.8179C47.019 39.2067 39.4079 46.8179 30.019 46.8179C20.6302 46.8179 13.019 39.2067 13.019 29.8179C13.019 20.429 20.6302 12.8179 30.019 12.8179ZM49.019 29.8179C49.019 19.3245 40.5125 10.8179 30.019 10.8179C19.5256 10.8179 11.019 19.3245 11.019 29.8179C11.019 40.3113 19.5256 48.8179 30.019 48.8179C40.5125 48.8179 49.019 40.3113 49.019 29.8179Z" fill="#D7DFE9"/>
<path d="M30.019 47.8179C39.9602 47.8179 48.019 39.759 48.019 29.8179C48.019 19.8767 39.9602 11.8179 30.019 11.8179V47.8179Z" fill="#EBEFF4"/>
<path d="M37.219 24.4184C37.219 26.0753 38.5621 27.4184 40.219 27.4184C41.8758 27.4184 43.219 26.0753 43.219 24.4184C43.219 22.7616 41.8758 21.4184 40.219 21.4184C38.5621 21.4184 37.219 22.7616 37.219 24.4184Z" fill="#2F3A45"/>
<path d="M37.219 36.4184C37.219 38.0753 38.5621 39.4184 40.219 39.4184C41.8758 39.4184 43.219 38.0753 43.219 36.4184C43.219 34.7616 41.8758 33.4184 40.219 33.4184C38.5621 33.4184 37.219 34.7616 37.219 36.4184Z" fill="#2F3A45"/>
<path fill-rule="evenodd" clip-rule="evenodd" d="M31.019 48.792V51.5H29.019V8.54541H31.019V10.8437C41.0476 11.3637 49.019 19.6599 49.019 29.8179C49.019 39.9758 41.0476 48.272 31.019 48.792ZM31.019 46.7889V45.392C32.4868 45.1965 33.6191 43.9397 33.6191 42.4184C33.6191 40.8972 32.4868 39.6404 31.019 39.4449V33.392C32.4868 33.1965 33.6191 31.9397 33.6191 30.4184C33.6191 28.8972 32.4868 27.6404 31.019 27.4449V21.392C32.4868 21.1965 33.6191 19.9397 33.6191 18.4184C33.6191 16.8972 32.4868 15.6404 31.019 15.4449V12.8468C39.9424 13.3644 47.019 20.7647 47.019 29.8179C47.019 38.871 39.9424 46.2713 31.019 46.7889Z" fill="#2F3A45"/>
</svg>
