<svg width="60" height="60" viewBox="0 0 60 60" fill="none" xmlns="http://www.w3.org/2000/svg">
<rect x="0.5" y="0.5" width="59" height="59" rx="9.5" stroke="#CDD3DF"/>
<path d="M48.519 30C48.519 39.9516 40.4516 48.019 30.5 48.019C20.5484 48.019 12.481 39.9516 12.481 30C12.481 20.0484 20.5484 11.981 30.5 11.981C40.4516 11.981 48.519 20.0484 48.519 30Z" fill="#FAFBFC"/>
<path d="M29.8992 21.5913C31.5578 21.5913 32.9023 20.2467 32.9023 18.5881C32.9023 16.9295 31.5578 15.585 29.8992 15.585C28.2406 15.585 26.896 16.9295 26.896 18.5881C26.896 20.2467 28.2406 21.5913 29.8992 21.5913Z" fill="#2F3A45"/>
<path d="M23.2922 24.5945C23.2922 26.2531 21.9477 27.5977 20.2891 27.5977C18.6305 27.5977 17.2859 26.2531 17.2859 24.5945C17.2859 22.9359 18.6305 21.5913 20.2891 21.5913C21.9477 21.5913 23.2922 22.9359 23.2922 24.5945Z" fill="#2F3A45"/>
<path d="M20.2891 39.6104C21.9477 39.6104 23.2922 38.2658 23.2922 36.6072C23.2922 34.9486 21.9477 33.604 20.2891 33.604C18.6305 33.604 17.2859 34.9486 17.2859 36.6072C17.2859 38.2658 18.6305 39.6104 20.2891 39.6104Z" fill="#2F3A45"/>
<path d="M32.9023 42.6135C32.9023 44.2721 31.5578 45.6167 29.8992 45.6167C28.2406 45.6167 26.896 44.2721 26.896 42.6135C26.896 40.9549 28.2406 39.6104 29.8992 39.6104C31.5578 39.6104 32.9023 40.9549 32.9023 42.6135Z" fill="#2F3A45"/>
<path d="M29.8992 33.604C31.5578 33.604 32.9023 32.2594 32.9023 30.6008C32.9023 28.9422 31.5578 27.5977 29.8992 27.5977C28.2406 27.5977 26.896 28.9422 26.896 30.6008C26.896 32.2594 28.2406 33.604 29.8992 33.604Z" fill="#2F3A45"/>
<path d="M37.7075 24.5945C37.7075 26.2531 39.0521 27.5977 40.7107 27.5977C42.3693 27.5977 43.7139 26.2531 43.7139 24.5945C43.7139 22.9359 42.3693 21.5913 40.7107 21.5913C39.0521 21.5913 37.7075 22.9359 37.7075 24.5945Z" fill="#2F3A45"/>
<path d="M40.7107 39.6104C39.0521 39.6104 37.7075 38.2658 37.7075 36.6072C37.7075 34.9486 39.0521 33.604 40.7107 33.604C42.3693 33.604 43.7139 34.9486 43.7139 36.6072C43.7139 38.2658 42.3693 39.6104 40.7107 39.6104Z" fill="#2F3A45"/>
<path fill-rule="evenodd" clip-rule="evenodd" d="M30.4998 10.9814C19.9958 10.9814 11.4807 19.4966 11.4807 30.0005C11.4807 40.5044 19.9958 49.0195 30.4998 49.0195C41.0037 49.0195 49.5188 40.5044 49.5188 30.0005C49.5188 19.4966 41.0037 10.9814 30.4998 10.9814ZM13.4807 30.0005C13.4807 20.6011 21.1004 12.9814 30.4998 12.9814C39.8991 12.9814 47.5188 20.6011 47.5188 30.0005C47.5188 39.3998 39.8991 47.0195 30.4998 47.0195C21.1004 47.0195 13.4807 39.3998 13.4807 30.0005Z" fill="#2F3A45"/>
</svg>
