<svg height="512" viewBox="0 0 58 58" width="512" xmlns="http://www.w3.org/2000/svg"><g id="Page-1" fill="none" fill-rule="evenodd"><g id="020---Pizza-Stall" fill-rule="nonzero" transform="translate(0 -1)"><path id="Shape" d="m19.5 50.93c.1621858.0484016.3307578.0720017.5.07h4c1.1032019-.0032948 1.9967052-.8967981 2-2v-8h-7z" fill="#f29c1f"/><path id="Shape" d="m38.5 50.93c.1621858.0484016.3307578.0720017.5.07h4c1.1032019-.0032948 1.9967052-.8967981 2-2v-8h-7z" fill="#f29c1f"/><path id="Shape" d="m21 42.93c.3310135.0492322.6653557.0726362 1 .07 2.21 0 4-.9 4-2s-1.79-2-4-2c-.8536257-.0123208-1.7018758.1369712-2.5.44h-.01z" fill="#95a5a5"/><path id="Shape" d="m40 42.93c.3310135.0492322.6653557.0726362 1 .07 2.21 0 4-.9 4-2s-1.79-2-4-2c-.8536257-.0123208-1.7018758.1369712-2.5.44h-.01z" fill="#95a5a5"/><path id="Shape" d="m13 41v8c0 1.1045695.8954305 2 2 2h4c1.1045695 0 2-.8954305 2-2v-8z" fill="#f0c419"/><path id="Shape" d="m32 41v8c0 1.1045695.8954305 2 2 2h4c1.1045695 0 2-.8954305 2-2v-8z" fill="#f0c419"/><path id="Shape" d="m8 33v18h-4v-18.13z" fill="#a56a43"/><path id="Shape" d="m54 32.87v18.13h-4v-18z" fill="#a56a43"/><path id="Shape" d="m16.4 16.999999-4 10.000001-.4 1v1c0 2.209139-1.790861 4-4 4h-3c-1.06127285.0013291-2.07946091-.4196715-2.82989472-1.1701053-.75043382-.7504338-1.17143436-1.7686219-1.17010528-2.8298947.00173641-.6521511.18903129-1.290341.54-1.84l4.99-7.84c.91170016-1.4451093 2.50133481-2.3211075 4.21-2.32z" fill="#26b99a"/><path id="Shape" d="m23 17v12c0 2.209139-1.790861 4-4 4h-3c-2.209139 0-4-1.790861-4-4v-1l4.4-11z" fill="#ecf0f1"/><path id="Shape" d="m35 17v12c0 2.209139-1.790861 4-4 4h-4c-2.209139 0-4-1.790861-4-4v-12z" fill="#26b99a"/><path id="Shape" d="m46 28v1c0 2.209139-1.790861 4-4 4h-3c-2.209139 0-4-1.790861-4-4v-12h6.6z" fill="#ecf0f1"/><path id="Shape" d="m57 29c0 2.209139-1.790861 4-4 4h-3c-1.0612728.0013291-2.0794609-.4196715-2.8298947-1.1701053s-1.1714344-1.7686219-1.1701053-2.8298947v-1l-.4-1-4-10.000001 5.66.000001c1.7086652-.0011075 3.2982998.8748907 4.21 2.32l4.99 7.84c.3509687.549659.5382636 1.1878489.54 1.84z" fill="#26b99a"/><path id="Shape" d="m46 28v1h-11v-2h10.6z" fill="#bdc3c7"/><path id="Shape" d="m23 27v2h-11v-1l.4-1z" fill="#bdc3c7"/><g fill="#14a085"><path id="Shape" d="m4 27h8.4l-.4 1v1h-8c-.55228475 0-1-.4477153-1-1s.44771525-1 1-1z"/><path id="Rectangle-path" d="m23 27h12v2h-12z"/><path id="Shape" d="m55 28c0 .5522847-.4477153 1-1 1h-8v-1l-.4-1h8.4c.5522847 0 1 .4477153 1 1z"/></g><rect id="Rectangle-path" fill="#cbb292" height="4" rx="2" width="58" y="51"/><path id="Shape" d="m2 55h54v2c0 1.1045695-.8954305 2-2 2h-50c-1.1045695 0-2-.8954305-2-2z" fill="#805333"/><path id="Shape" d="m14.019 21h31.041c.4307818-.004824.8113871-.2815816.9487689-.6898982.1373818-.4083167.0014822-.8588569-.3387689-1.1231018l-23.107-17.977c-.3503572-.27540194-.8415402-.28276969-1.2-.018-1.992 1.444-8.022 6.789-8.353 18.772-.0064537.2720133.0968987.5351665.2867385.7300863.1898398.1949197.4501726.3051837.7222615.3059137z" fill="#f0c419"/><path id="Shape" d="m28.23 21c.4970501-.547345.7716714-1.2606472.77-2 0-1.6568542-1.3431458-3-3-3s-3 1.3431458-3 3c-.0016714.7393528.2729499 1.452655.77 2z" fill="#cc4b4c"/><path id="Shape" d="m36.06 11.72c-.6756283.5639236-1.0643134 1.3999632-1.06 2.28.0037587 1.3926404.9654161 2.5995792 2.3220351 2.9142957 1.356619.3147166 2.7514422-.3455518 3.3679649-1.5942957z" fill="#cc4b4c"/><circle id="Oval" cx="27" cy="11" fill="#cc4b4c" r="1"/><ellipse id="Oval" cx="17" cy="41" fill="#bdc3c7" rx="4" ry="2"/><ellipse id="Oval" cx="36" cy="41" fill="#bdc3c7" rx="4" ry="2"/><path id="Shape" d="m25.75 3.69c-2.32 1.91-7.13 7.04-7.69 17.31h-4.04c-.2722838-.002617-.5322179-.1139955-.7219225-.3093349s-.2934292-.4584213-.2880775-.7306651c.34-11.98 6.37-17.32 8.36-18.77.3568457-.2591256.8420635-.25097068 1.19.02z" fill="#f9eab0"/></g></g></svg>