<svg width="60" height="60" viewBox="0 0 60 60" fill="none" xmlns="http://www.w3.org/2000/svg">
<rect x="-0.5" y="0.5" width="59" height="59" rx="9.5" transform="matrix(-1 0 0 1 59 0)" fill="#009949" stroke="#009949"/>
<path fill-rule="evenodd" clip-rule="evenodd" d="M31.019 10.8432C41.0476 11.3633 49.019 19.6594 49.019 29.8174C49.019 39.9754 41.0476 48.2715 31.019 48.7915V51.4995H29.019V48.7915C18.9905 48.2715 11.019 39.9754 11.019 29.8174C11.019 19.6594 18.9905 11.3633 29.019 10.8432V8.54492H31.019V10.8432ZM29.019 46.7885V12.8463C20.0957 13.3639 13.019 20.7642 13.019 29.8174C13.019 38.8705 20.0957 46.2708 29.019 46.7885ZM33.6194 42.417C33.6194 40.8956 32.487 39.6388 31.019 39.4434V45.3906C32.487 45.1952 33.6194 43.9383 33.6194 42.417ZM33.6194 30.417C33.6194 28.8956 32.487 27.6388 31.019 27.4434V33.3906C32.487 33.1952 33.6194 31.9383 33.6194 30.417ZM33.6194 18.417C33.6194 16.8956 32.487 15.6388 31.019 15.4434V21.3906C32.487 21.1952 33.6194 19.9383 33.6194 18.417ZM37.2192 24.417C37.2192 26.0738 38.5624 27.417 40.2192 27.417C41.8761 27.417 43.2192 26.0738 43.2192 24.417C43.2192 22.7601 41.8761 21.417 40.2192 21.417C38.5624 21.417 37.2192 22.7601 37.2192 24.417ZM40.2192 39.417C38.5624 39.417 37.2192 38.0738 37.2192 36.417C37.2192 34.7601 38.5624 33.417 40.2192 33.417C41.8761 33.417 43.2192 34.7601 43.2192 36.417C43.2192 38.0738 41.8761 39.417 40.2192 39.417Z" fill="white"/>
</svg>
