<svg width="60" height="60" viewBox="0 0 60 60" fill="none" xmlns="http://www.w3.org/2000/svg">
<rect x="0.5" y="0.5" width="59" height="59" rx="9.5" fill="#009949" stroke="#009949"/>
<path fill-rule="evenodd" clip-rule="evenodd" d="M28.981 10.8432C18.9524 11.3633 10.981 19.6594 10.981 29.8174C10.981 39.9754 18.9524 48.2715 28.981 48.7915V51.4995H30.981V48.7915C41.0095 48.2715 48.981 39.9754 48.981 29.8174C48.981 19.6594 41.0095 11.3633 30.981 10.8432V8.54492H28.981V10.8432ZM30.981 46.7885V12.8463C39.9043 13.3639 46.981 20.7642 46.981 29.8174C46.981 38.8705 39.9043 46.2708 30.981 46.7885ZM26.3806 42.417C26.3806 40.8956 27.513 39.6388 28.981 39.4434V45.3906C27.513 45.1952 26.3806 43.9383 26.3806 42.417ZM26.3806 30.417C26.3806 28.8956 27.513 27.6388 28.981 27.4434V33.3906C27.513 33.1952 26.3806 31.9383 26.3806 30.417ZM26.3806 18.417C26.3806 16.8956 27.513 15.6388 28.981 15.4434V21.3906C27.513 21.1952 26.3806 19.9383 26.3806 18.417ZM22.7808 24.417C22.7808 26.0738 21.4376 27.417 19.7808 27.417C18.1239 27.417 16.7808 26.0738 16.7808 24.417C16.7808 22.7601 18.1239 21.417 19.7808 21.417C21.4376 21.417 22.7808 22.7601 22.7808 24.417ZM19.7808 39.417C21.4376 39.417 22.7808 38.0738 22.7808 36.417C22.7808 34.7601 21.4376 33.417 19.7808 33.417C18.1239 33.417 16.7808 34.7601 16.7808 36.417C16.7808 38.0738 18.1239 39.417 19.7808 39.417Z" fill="white"/>
</svg>
