<svg width="60" height="60" viewBox="0 0 60 60" fill="none" xmlns="http://www.w3.org/2000/svg">
<rect x="0.5" y="0.5" width="59" height="59" rx="9.5" fill="white" stroke="#CDD3DF"/>
<path d="M47.981 29.8179C47.981 39.759 39.9221 47.8179 29.981 47.8179C20.0398 47.8179 11.981 39.759 11.981 29.8179C11.981 19.8767 20.0398 11.8179 29.981 11.8179C39.9221 11.8179 47.981 19.8767 47.981 29.8179Z" fill="#FAFBFC"/>
<path fill-rule="evenodd" clip-rule="evenodd" d="M29.981 12.8179C20.5921 12.8179 12.981 20.429 12.981 29.8179C12.981 39.2067 20.5921 46.8179 29.981 46.8179C39.3698 46.8179 46.981 39.2067 46.981 29.8179C46.981 20.429 39.3698 12.8179 29.981 12.8179ZM10.981 29.8179C10.981 19.3245 19.4875 10.8179 29.981 10.8179C40.4744 10.8179 48.981 19.3245 48.981 29.8179C48.981 40.3113 40.4744 48.8179 29.981 48.8179C19.4875 48.8179 10.981 40.3113 10.981 29.8179Z" fill="#D7DFE9"/>
<path d="M29.981 47.8179C20.0398 47.8179 11.981 39.759 11.981 29.8179C11.981 19.8767 20.0398 11.8179 29.981 11.8179V47.8179Z" fill="#EBEFF4"/>
<path d="M22.781 24.4184C22.781 26.0753 21.4379 27.4184 19.781 27.4184C18.1242 27.4184 16.781 26.0753 16.781 24.4184C16.781 22.7616 18.1242 21.4184 19.781 21.4184C21.4379 21.4184 22.781 22.7616 22.781 24.4184Z" fill="#2F3A45"/>
<path d="M22.781 36.4184C22.781 38.0753 21.4379 39.4184 19.781 39.4184C18.1242 39.4184 16.781 38.0753 16.781 36.4184C16.781 34.7616 18.1242 33.4184 19.781 33.4184C21.4379 33.4184 22.781 34.7616 22.781 36.4184Z" fill="#2F3A45"/>
<path fill-rule="evenodd" clip-rule="evenodd" d="M28.981 48.792V51.5H30.981V8.54541H28.981V10.8437C18.9524 11.3637 10.981 19.6599 10.981 29.8179C10.981 39.9758 18.9524 48.272 28.981 48.792ZM28.981 46.7889V45.392C27.5132 45.1965 26.3809 43.9397 26.3809 42.4184C26.3809 40.8972 27.5132 39.6404 28.981 39.4449V33.392C27.5132 33.1965 26.3809 31.9397 26.3809 30.4184C26.3809 28.8972 27.5132 27.6404 28.981 27.4449V21.392C27.5132 21.1965 26.3809 19.9397 26.3809 18.4184C26.3809 16.8972 27.5132 15.6404 28.981 15.4449V12.8468C20.0576 13.3644 12.981 20.7647 12.981 29.8179C12.981 38.871 20.0576 46.2713 28.981 46.7889Z" fill="#2F3A45"/>
</svg>
